    nan    :  0.000 fd=   0 aq=    0KB vq=    0KB sq=    0B f=0/0   Input #0, wav, from '/tmp/tmphxlfsjzi.wav':
  Duration: 00:00:03.00, bitrate: 1411 kb/s
  Stream #0:0: Audio: pcm_s16le ([1][0][0][0] / 0x0001), 44100 Hz, 2 channels, s16, 1411 kb/s
    nan M-A:    nan fd=   0 aq=  136KB vq=    0KB sq=    0B f=0/0     -0.03 M-A:  0.000 fd=   0 aq=  176KB vq=    0KB sq=    0B f=0/0      0.00 M-A:  0.000 fd=   0 aq=  168KB vq=    0KB sq=    0B f=0/0      0.03 M-A:  0.000 fd=   0 aq=  176KB vq=    0KB sq=    0B f=0/0      0.06 M-A: -0.000 fd=   0 aq=  176KB vq=    0KB sq=    0B f=0/0      0.10 M-A:  0.000 fd=   0 aq=  176KB vq=    0KB sq=    0B f=0/0      0.11 M-A:  0.000 fd=   0 aq=  176KB vq=    0KB sq=    0B f=0/0      0.14 M-A:  0.000 fd=   0 aq=  176KB vq=    0KB sq=    0B f=0/0      0.17 M-A:  0.000 fd=   0 aq=  176KB vq=    0KB sq=    0B f=0/0      0.21 M-A:  0.000 fd=   0 aq=  176KB vq=    0KB sq=    0B f=0/0      0.24 M-A:  0.000 fd=   0 aq=  176KB vq=    0KB sq=    0B f=0/0      0.27 M-A:  0.000 fd=   0 aq=  176KB vq=    0KB sq=    0B f=0/0      0.30 M-A:  0.000 fd=   0 aq=  176KB vq=    0KB sq=    0B f=0/0      0.34 M-A: -0.000 fd=   0 aq=  176KB vq=    0KB sq=    0B f=0/0      0.37 M-A:  0.000 fd=   0 aq=  176KB vq=    0KB sq=    0B f=0/0      0.38 M-A:  0.000 fd=   0 aq=  176KB vq=    0KB sq=    0B f=0/0      0.41 M-A:  0.000 fd=   0 aq=  176KB vq=    0KB sq=    0B f=0/0      0.45 M-A:  0.000 fd=   0 aq=  176KB vq=    0KB sq=    0B f=0/0      0.48 M-A:  0.000 fd=   0 aq=  176KB vq=    0KB sq=    0B f=0/0      0.51 M-A:  0.000 fd=   0 aq=  176KB vq=    0KB sq=    0B f=0/0      0.54 M-A:  0.000 fd=   0 aq=  176KB vq=    0KB sq=    0B f=0/0      0.58 M-A:  0.000 fd=   0 aq=  176KB vq=    0KB sq=    0B f=0/0      0.61 M-A:  0.000 fd=   0 aq=  176KB vq=    0KB sq=    0B f=0/0      0.62 M-A:  0.000 fd=   0 aq=  176KB vq=    0KB sq=    0B f=0/0      0.66 M-A:  0.000 fd=   0 aq=  176KB vq=    0KB sq=    0B f=0/0      0.69 M-A:  0.000 fd=   0 aq=  176KB vq=    0KB sq=    0B f=0/0      0.72 M-A:  0.000 fd=   0 aq=  176KB vq=    0KB sq=    0B f=0/0      0.76 M-A:  0.000 fd=   0 aq=  176KB vq=    0KB sq=    0B f=0/0      0.79 M-A:  0.000 fd=   0 aq=  176KB vq=    0KB sq=    0B f=0/0      0.82 M-A:  0.000 fd=   0 aq=  176KB vq=    0KB sq=    0B f=0/0      0.85 M-A:  0.000 fd=   0 aq=  176KB vq=    0KB sq=    0B f=0/0      0.88 M-A:  0.000 fd=   0 aq=  176KB vq=    0KB sq=    0B f=0/0      0.90 M-A:  0.000 fd=   0 aq=  176KB vq=    0KB sq=    0B f=0/0      0.93 M-A: -0.000 fd=   0 aq=  176KB vq=    0KB sq=    0B f=0/0      0.96 M-A:  0.000 fd=   0 aq=  176KB vq=    0KB sq=    0B f=0/0      1.00 M-A: -0.000 fd=   0 aq=  176KB vq=    0KB sq=    0B f=0/0      1.03 M-A:  0.000 fd=   0 aq=  176KB vq=    0KB sq=    0B f=0/0      1.06 M-A:  0.000 fd=   0 aq=  176KB vq=    0KB sq=    0B f=0/0      1.09 M-A:  0.000 fd=   0 aq=  176KB vq=    0KB sq=    0B f=0/0      1.13 M-A:  0.000 fd=   0 aq=  176KB vq=    0KB sq=    0B f=0/0      1.16 M-A: -0.000 fd=   0 aq=  176KB vq=    0KB sq=    0B f=0/0      1.17 M-A:  0.000 fd=   0 aq=  176KB vq=    0KB sq=    0B f=0/0      1.20 M-A:  0.000 fd=   0 aq=  176KB vq=    0KB sq=    0B f=0/0      1.24 M-A:  0.000 fd=   0 aq=  176KB vq=    0KB sq=    0B f=0/0      1.27 M-A:  0.000 fd=   0 aq=  176KB vq=    0KB sq=    0B f=0/0      1.31 M-A:  0.000 fd=   0 aq=  172KB vq=    0KB sq=    0B f=0/0      1.34 M-A:  0.000 fd=   0 aq=  176KB vq=    0KB sq=    0B f=0/0      1.37 M-A:  0.000 fd=   0 aq=  176KB vq=    0KB sq=    0B f=0/0      1.40 M-A:  0.000 fd=   0 aq=  176KB vq=    0KB sq=    0B f=0/0      1.41 M-A:  0.000 fd=   0 aq=  176KB vq=    0KB sq=    0B f=0/0      1.45 M-A:  0.000 fd=   0 aq=  176KB vq=    0KB sq=    0B f=0/0      1.48 M-A:  0.000 fd=   0 aq=  176KB vq=    0KB sq=    0B f=0/0      1.51 M-A:  0.000 fd=   0 aq=  176KB vq=    0KB sq=    0B f=0/0      1.54 M-A:  0.000 fd=   0 aq=  176KB vq=    0KB sq=    0B f=0/0      1.58 M-A:  0.000 fd=   0 aq=  176KB vq=    0KB sq=    0B f=0/0      1.61 M-A:  0.000 fd=   0 aq=  176KB vq=    0KB sq=    0B f=0/0      1.64 M-A:  0.000 fd=   0 aq=  176KB vq=    0KB sq=    0B f=0/0      1.67 M-A:  0.000 fd=   0 aq=  176KB vq=    0KB sq=    0B f=0/0      1.69 M-A:  0.000 fd=   0 aq=  176KB vq=    0KB sq=    0B f=0/0      1.72 M-A:  0.000 fd=   0 aq=  169KB vq=    0KB sq=    0B f=0/0      1.75 M-A: -0.000 fd=   0 aq=  169KB vq=    0KB sq=    0B f=0/0      1.78 M-A:  0.000 fd=   0 aq=  161KB vq=    0KB sq=    0B f=0/0      1.82 M-A:  0.000 fd=   0 aq=  153KB vq=    0KB sq=    0B f=0/0      1.85 M-A:  0.000 fd=   0 aq=  153KB vq=    0KB sq=    0B f=0/0      1.88 M-A:  0.000 fd=   0 aq=  145KB vq=    0KB sq=    0B f=0/0      1.92 M-A:  0.000 fd=   0 aq=  137KB vq=    0KB sq=    0B f=0/0      1.95 M-A:  0.000 fd=   0 aq=  137KB vq=    0KB sq=    0B f=0/0      1.96 M-A:  0.000 fd=   0 aq=  129KB vq=    0KB sq=    0B f=0/0      1.99 M-A:  0.000 fd=   0 aq=  129KB vq=    0KB sq=    0B f=0/0      2.02 M-A:  0.000 fd=   0 aq=  121KB vq=    0KB sq=    0B f=0/0      2.06 M-A:  0.000 fd=   0 aq=  113KB vq=    0KB sq=    0B f=0/0      2.09 M-A:  0.000 fd=   0 aq=  105KB vq=    0KB sq=    0B f=0/0      2.12 M-A:  0.000 fd=   0 aq=  105KB vq=    0KB sq=    0B f=0/0      2.16 M-A:  0.000 fd=   0 aq=   97KB vq=    0KB sq=    0B f=0/0      2.19 M-A:  0.000 fd=   0 aq=   97KB vq=    0KB sq=    0B f=0/0      2.20 M-A:  0.000 fd=   0 aq=   89KB vq=    0KB sq=    0B f=0/0      2.23 M-A:  0.000 fd=   0 aq=   81KB vq=    0KB sq=    0B f=0/0      2.26 M-A:  0.000 fd=   0 aq=   81KB vq=    0KB sq=    0B f=0/0      2.30 M-A:  0.000 fd=   0 aq=   73KB vq=    0KB sq=    0B f=0/0      2.33 M-A:  0.000 fd=   0 aq=   65KB vq=    0KB sq=    0B f=0/0      2.36 M-A: -0.000 fd=   0 aq=   65KB vq=    0KB sq=    0B f=0/0      2.40 M-A:  0.000 fd=   0 aq=   57KB vq=    0KB sq=    0B f=0/0      2.43 M-A:  0.000 fd=   0 aq=   49KB vq=    0KB sq=    0B f=0/0      2.46 M-A:  0.000 fd=   0 aq=   49KB vq=    0KB sq=    0B f=0/0      2.47 M-A:  0.000 fd=   0 aq=   40KB vq=    0KB sq=    0B f=0/0      2.50 M-A:  0.000 fd=   0 aq=   40KB vq=    0KB sq=    0B f=0/0      2.54 M-A: -0.000 fd=   0 aq=   32KB vq=    0KB sq=    0B f=0/0      2.57 M-A:  0.000 fd=   0 aq=   24KB vq=    0KB sq=    0B f=0/0      2.61 M-A:  0.000 fd=   0 aq=   16KB vq=    0KB sq=    0B f=0/0      2.64 M-A:  0.000 fd=   0 aq=   16KB vq=    0KB sq=    0B f=0/0      2.67 M-A:  0.000 fd=   0 aq=    8KB vq=    0KB sq=    0B f=0/0      2.70 M-A:  0.000 fd=   0 aq=    0KB vq=    0KB sq=    0B f=0/0      2.73 M-A: -0.000 fd=   0 aq=    0KB vq=    0KB sq=    0B f=0/0      2.75 M-A:  0.000 fd=   0 aq=    0KB vq=    0KB sq=    0B f=0/0      2.78 M-A:  0.000 fd=   0 aq=    0KB vq=    0KB sq=    0B f=0/0      2.81 M-A:  0.000 fd=   0 aq=    0KB vq=    0KB sq=    0B f=0/0      2.85 M-A:  0.000 fd=   0 aq=    0KB vq=    0KB sq=    0B f=0/0      2.88 M-A:  0.000 fd=   0 aq=    0KB vq=    0KB sq=    0B f=0/0      2.91 M-A:  0.000 fd=   0 aq=    0KB vq=    0KB sq=    0B f=0/0   
    nan    :  0.000 fd=   0 aq=    0KB vq=    0KB sq=    0B f=0/0   Input #0, wav, from '/tmp/tmpeew0wez3.wav':
  Duration: 00:00:03.00, bitrate: 1411 kb/s
  Stream #0:0: Audio: pcm_s16le ([1][0][0][0] / 0x0001), 44100 Hz, 2 channels, s16, 1411 kb/s
    nan M-A:    nan fd=   0 aq=  172KB vq=    0KB sq=    0B f=0/0     -0.03 M-A:  0.000 fd=   0 aq=  176KB vq=    0KB sq=    0B f=0/0      0.00 M-A:  0.000 fd=   0 aq=  168KB vq=    0KB sq=    0B f=0/0      0.03 M-A:  0.000 fd=   0 aq=  176KB vq=    0KB sq=    0B f=0/0      0.07 M-A:  0.000 fd=   0 aq=  176KB vq=    0KB sq=    0B f=0/0      0.10 M-A:  0.000 fd=   0 aq=  176KB vq=    0KB sq=    0B f=0/0      0.11 M-A:  0.000 fd=   0 aq=  176KB vq=    0KB sq=    0B f=0/0      0.14 M-A:  0.000 fd=   0 aq=  176KB vq=    0KB sq=    0B f=0/0      0.17 M-A:  0.000 fd=   0 aq=  176KB vq=    0KB sq=    0B f=0/0      0.21 M-A:  0.000 fd=   0 aq=  176KB vq=    0KB sq=    0B f=0/0      0.24 M-A:  0.000 fd=   0 aq=  176KB vq=    0KB sq=    0B f=0/0      0.27 M-A:  0.000 fd=   0 aq=  176KB vq=    0KB sq=    0B f=0/0      0.30 M-A:  0.000 fd=   0 aq=  176KB vq=    0KB sq=    0B f=0/0      0.34 M-A:  0.000 fd=   0 aq=  176KB vq=    0KB sq=    0B f=0/0      0.37 M-A:  0.000 fd=   0 aq=  176KB vq=    0KB sq=    0B f=0/0      0.38 M-A:  0.000 fd=   0 aq=  176KB vq=    0KB sq=    0B f=0/0      0.41 M-A:  0.000 fd=   0 aq=  176KB vq=    0KB sq=    0B f=0/0      0.45 M-A:  0.000 fd=   0 aq=  176KB vq=    0KB sq=    0B f=0/0      0.48 M-A:  0.000 fd=   0 aq=  176KB vq=    0KB sq=    0B f=0/0      0.51 M-A:  0.000 fd=   0 aq=  176KB vq=    0KB sq=    0B f=0/0      0.54 M-A:  0.000 fd=   0 aq=  176KB vq=    0KB sq=    0B f=0/0      0.58 M-A:  0.000 fd=   0 aq=  176KB vq=    0KB sq=    0B f=0/0      0.61 M-A:  0.000 fd=   0 aq=  176KB vq=    0KB sq=    0B f=0/0      0.62 M-A:  0.000 fd=   0 aq=  176KB vq=    0KB sq=    0B f=0/0      0.65 M-A:  0.000 fd=   0 aq=  176KB vq=    0KB sq=    0B f=0/0      0.68 M-A:  0.000 fd=   0 aq=  176KB vq=    0KB sq=    0B f=0/0      0.72 M-A:  0.000 fd=   0 aq=  176KB vq=    0KB sq=    0B f=0/0      0.75 M-A:  0.000 fd=   0 aq=  176KB vq=    0KB sq=    0B f=0/0      0.78 M-A:  0.000 fd=   0 aq=  176KB vq=    0KB sq=    0B f=0/0      0.82 M-A:  0.000 fd=   0 aq=  176KB vq=    0KB sq=    0B f=0/0      0.85 M-A:  0.000 fd=   0 aq=  176KB vq=    0KB sq=    0B f=0/0      0.88 M-A:  0.000 fd=   0 aq=  176KB vq=    0KB sq=    0B f=0/0      0.89 M-A:  0.000 fd=   0 aq=  176KB vq=    0KB sq=    0B f=0/0      0.92 M-A:  0.000 fd=   0 aq=  176KB vq=    0KB sq=    0B f=0/0      0.96 M-A:  0.000 fd=   0 aq=  176KB vq=    0KB sq=    0B f=0/0      0.99 M-A:  0.000 fd=   0 aq=  176KB vq=    0KB sq=    0B f=0/0      1.03 M-A:  0.000 fd=   0 aq=  176KB vq=    0KB sq=    0B f=0/0      1.06 M-A:  0.000 fd=   0 aq=  176KB vq=    0KB sq=    0B f=0/0      1.09 M-A:  0.000 fd=   0 aq=  176KB vq=    0KB sq=    0B f=0/0      1.12 M-A:  0.000 fd=   0 aq=  176KB vq=    0KB sq=    0B f=0/0      1.15 M-A:  0.000 fd=   0 aq=  176KB vq=    0KB sq=    0B f=0/0      1.17 M-A:  0.000 fd=   0 aq=  176KB vq=    0KB sq=    0B f=0/0      1.20 M-A:  0.000 fd=   0 aq=  176KB vq=    0KB sq=    0B f=0/0      1.23 M-A:  0.000 fd=   0 aq=  176KB vq=    0KB sq=    0B f=0/0      1.26 M-A:  0.000 fd=   0 aq=  176KB vq=    0KB sq=    0B f=0/0      1.30 M-A:  0.000 fd=   0 aq=  176KB vq=    0KB sq=    0B f=0/0      1.33 M-A:  0.000 fd=   0 aq=  176KB vq=    0KB sq=    0B f=0/0      1.36 M-A:  0.000 fd=   0 aq=  176KB vq=    0KB sq=    0B f=0/0      1.39 M-A:  0.000 fd=   0 aq=  176KB vq=    0KB sq=    0B f=0/0      1.41 M-A:  0.000 fd=   0 aq=  176KB vq=    0KB sq=    0B f=0/0      1.44 M-A:  0.000 fd=   0 aq=  168KB vq=    0KB sq=    0B f=0/0      1.47 M-A:  0.000 fd=   0 aq=  176KB vq=    0KB sq=    0B f=0/0      1.50 M-A:  0.000 fd=   0 aq=  176KB vq=    0KB sq=    0B f=0/0      1.54 M-A:  0.000 fd=   0 aq=  176KB vq=    0KB sq=    0B f=0/0      1.57 M-A:  0.000 fd=   0 aq=  176KB vq=    0KB sq=    0B f=0/0      1.60 M-A:  0.000 fd=   0 aq=  176KB vq=    0KB sq=    0B f=0/0      1.64 M-A:  0.000 fd=   0 aq=  176KB vq=    0KB sq=    0B f=0/0      1.67 M-A:  0.000 fd=   0 aq=  176KB vq=    0KB sq=    0B f=0/0      1.68 M-A:  0.000 fd=   0 aq=  176KB vq=    0KB sq=    0B f=0/0      1.71 M-A:  0.000 fd=   0 aq=  176KB vq=    0KB sq=    0B f=0/0      1.74 M-A:  0.000 fd=   0 aq=  169KB vq=    0KB sq=    0B f=0/0      1.78 M-A:  0.000 fd=   0 aq=  161KB vq=    0KB sq=    0B f=0/0      1.81 M-A:  0.000 fd=   0 aq=  153KB vq=    0KB sq=    0B f=0/0      1.84 M-A: -0.000 fd=   0 aq=  153KB vq=    0KB sq=    0B f=0/0      1.88 M-A:  0.000 fd=   0 aq=  145KB vq=    0KB sq=    0B f=0/0      1.91 M-A:  0.000 fd=   0 aq=  137KB vq=    0KB sq=    0B f=0/0      1.94 M-A:  0.000 fd=   0 aq=  137KB vq=    0KB sq=    0B f=0/0      1.95 M-A:  0.000 fd=   0 aq=  129KB vq=    0KB sq=    0B f=0/0      1.98 M-A: -0.000 fd=   0 aq=  129KB vq=    0KB sq=    0B f=0/0      2.02 M-A:  0.000 fd=   0 aq=  121KB vq=    0KB sq=    0B f=0/0      2.05 M-A:  0.000 fd=   0 aq=  113KB vq=    0KB sq=    0B f=0/0      2.08 M-A:  0.000 fd=   0 aq=  113KB vq=    0KB sq=    0B f=0/0      2.11 M-A: -0.000 fd=   0 aq=  105KB vq=    0KB sq=    0B f=0/0      2.15 M-A:  0.000 fd=   0 aq=   97KB vq=    0KB sq=    0B f=0/0      2.18 M-A: -0.000 fd=   0 aq=   97KB vq=    0KB sq=    0B f=0/0      2.19 M-A:  0.000 fd=   0 aq=   89KB vq=    0KB sq=    0B f=0/0      2.22 M-A:  0.000 fd=   0 aq=   89KB vq=    0KB sq=    0B f=0/0      2.26 M-A:  0.000 fd=   0 aq=   81KB vq=    0KB sq=    0B f=0/0      2.29 M-A:  0.000 fd=   0 aq=   73KB vq=    0KB sq=    0B f=0/0      2.32 M-A:  0.000 fd=   0 aq=   65KB vq=    0KB sq=    0B f=0/0      2.35 M-A:  0.000 fd=   0 aq=   65KB vq=    0KB sq=    0B f=0/0      2.39 M-A:  0.000 fd=   0 aq=   57KB vq=    0KB sq=    0B f=0/0      2.42 M-A:  0.000 fd=   0 aq=   49KB vq=    0KB sq=    0B f=0/0      2.45 M-A:  0.000 fd=   0 aq=   49KB vq=    0KB sq=    0B f=0/0      2.47 M-A:  0.000 fd=   0 aq=   40KB vq=    0KB sq=    0B f=0/0      2.50 M-A:  0.000 fd=   0 aq=   40KB vq=    0KB sq=    0B f=0/0      2.53 M-A:  0.000 fd=   0 aq=   32KB vq=    0KB sq=    0B f=0/0      2.56 M-A:  0.000 fd=   0 aq=   24KB vq=    0KB sq=    0B f=0/0      2.59 M-A:  0.000 fd=   0 aq=   24KB vq=    0KB sq=    0B f=0/0      2.63 M-A:  0.000 fd=   0 aq=   16KB vq=    0KB sq=    0B f=0/0      2.66 M-A:  0.000 fd=   0 aq=    8KB vq=    0KB sq=    0B f=0/0      2.70 M-A:  0.000 fd=   0 aq=    0KB vq=    0KB sq=    0B f=0/0      2.73 M-A:  0.000 fd=   0 aq=    0KB vq=    0KB sq=    0B f=0/0      2.76 M-A:  0.000 fd=   0 aq=    0KB vq=    0KB sq=    0B f=0/0      2.77 M-A: -0.000 fd=   0 aq=    0KB vq=    0KB sq=    0B f=0/0      2.80 M-A:  0.000 fd=   0 aq=    0KB vq=    0KB sq=    0B f=0/0      2.84 M-A:  0.000 fd=   0 aq=    0KB vq=    0KB sq=    0B f=0/0      2.87 M-A:  0.000 fd=   0 aq=    0KB vq=    0KB sq=    0B f=0/0      2.90 M-A:  0.000 fd=   0 aq=    0KB vq=    0KB sq=    0B f=0/0      2.93 M-A: -0.000 fd=   0 aq=    0KB vq=    0KB sq=    0B f=0/0   
    nan    :  0.000 fd=   0 aq=    0KB vq=    0KB sq=    0B f=0/0   Input #0, wav, from '/tmp/tmp66oyfeqs.wav':
  Duration: 00:00:03.00, bitrate: 1411 kb/s
  Stream #0:0: Audio: pcm_s16le ([1][0][0][0] / 0x0001), 44100 Hz, 2 channels, s16, 1411 kb/s
    nan M-A:    nan fd=   0 aq=  136KB vq=    0KB sq=    0B f=0/0     -0.03 M-A:  0.000 fd=   0 aq=  176KB vq=    0KB sq=    0B f=0/0      0.00 M-A:  0.000 fd=   0 aq=  168KB vq=    0KB sq=    0B f=0/0      0.03 M-A:  0.000 fd=   0 aq=  176KB vq=    0KB sq=    0B f=0/0      0.06 M-A:  0.000 fd=   0 aq=  176KB vq=    0KB sq=    0B f=0/0      0.09 M-A:  0.000 fd=   0 aq=  176KB vq=    0KB sq=    0B f=0/0      0.11 M-A:  0.000 fd=   0 aq=  176KB vq=    0KB sq=    0B f=0/0      0.14 M-A:  0.000 fd=   0 aq=  168KB vq=    0KB sq=    0B f=0/0      0.17 M-A:  0.000 fd=   0 aq=  176KB vq=    0KB sq=    0B f=0/0      0.21 M-A:  0.000 fd=   0 aq=  176KB vq=    0KB sq=    0B f=0/0      0.24 M-A:  0.000 fd=   0 aq=  176KB vq=    0KB sq=    0B f=0/0      0.27 M-A:  0.000 fd=   0 aq=  176KB vq=    0KB sq=    0B f=0/0      0.30 M-A:  0.000 fd=   0 aq=  176KB vq=    0KB sq=    0B f=0/0      0.34 M-A:  0.000 fd=   0 aq=  176KB vq=    0KB sq=    0B f=0/0      0.37 M-A:  0.000 fd=   0 aq=  176KB vq=    0KB sq=    0B f=0/0      0.38 M-A:  0.000 fd=   0 aq=  176KB vq=    0KB sq=    0B f=0/0      0.41 M-A:  0.000 fd=   0 aq=  176KB vq=    0KB sq=    0B f=0/0      0.44 M-A:  0.000 fd=   0 aq=  176KB vq=    0KB sq=    0B f=0/0      0.48 M-A:  0.000 fd=   0 aq=  176KB vq=    0KB sq=    0B f=0/0      0.51 M-A:  0.000 fd=   0 aq=  168KB vq=    0KB sq=    0B f=0/0      0.54 M-A:  0.000 fd=   0 aq=  176KB vq=    0KB sq=    0B f=0/0      0.58 M-A:  0.000 fd=   0 aq=  176KB vq=    0KB sq=    0B f=0/0      0.61 M-A:  0.000 fd=   0 aq=  176KB vq=    0KB sq=    0B f=0/0      0.62 M-A:  0.000 fd=   0 aq=  176KB vq=    0KB sq=    0B f=0/0      0.65 M-A:  0.000 fd=   0 aq=  176KB vq=    0KB sq=    0B f=0/0      0.68 M-A:  0.000 fd=   0 aq=  176KB vq=    0KB sq=    0B f=0/0      0.72 M-A:  0.000 fd=   0 aq=  176KB vq=    0KB sq=    0B f=0/0      0.75 M-A: -0.000 fd=   0 aq=  176KB vq=    0KB sq=    0B f=0/0      0.78 M-A:  0.000 fd=   0 aq=  176KB vq=    0KB sq=    0B f=0/0      0.82 M-A:  0.000 fd=   0 aq=  176KB vq=    0KB sq=    0B f=0/0      0.85 M-A:  0.000 fd=   0 aq=  176KB vq=    0KB sq=    0B f=0/0      0.88 M-A:  0.000 fd=   0 aq=  176KB vq=    0KB sq=    0B f=0/0      0.89 M-A:  0.000 fd=   0 aq=  176KB vq=    0KB sq=    0B f=0/0      0.92 M-A:  0.000 fd=   0 aq=  176KB vq=    0KB sq=    0B f=0/0      0.96 M-A:  0.000 fd=   0 aq=  176KB vq=    0KB sq=    0B f=0/0      0.99 M-A:  0.000 fd=   0 aq=  176KB vq=    0KB sq=    0B f=0/0      1.02 M-A:  0.000 fd=   0 aq=  176KB vq=    0KB sq=    0B f=0/0      1.05 M-A:  0.000 fd=   0 aq=  176KB vq=    0KB sq=    0B f=0/0      1.09 M-A:  0.000 fd=   0 aq=  176KB vq=    0KB sq=    0B f=0/0      1.12 M-A:  0.000 fd=   0 aq=  176KB vq=    0KB sq=    0B f=0/0      1.15 M-A:  0.000 fd=   0 aq=  176KB vq=    0KB sq=    0B f=0/0      1.17 M-A:  0.000 fd=   0 aq=  176KB vq=    0KB sq=    0B f=0/0      1.20 M-A:  0.000 fd=   0 aq=  176KB vq=    0KB sq=    0B f=0/0      1.23 M-A:  0.000 fd=   0 aq=  176KB vq=    0KB sq=    0B f=0/0      1.26 M-A:  0.000 fd=   0 aq=  176KB vq=    0KB sq=    0B f=0/0      1.29 M-A:  0.000 fd=   0 aq=  176KB vq=    0KB sq=    0B f=0/0      1.33 M-A:  0.000 fd=   0 aq=  176KB vq=    0KB sq=    0B f=0/0      1.36 M-A:  0.000 fd=   0 aq=  176KB vq=    0KB sq=    0B f=0/0      1.39 M-A: -0.000 fd=   0 aq=  176KB vq=    0KB sq=    0B f=0/0      1.40 M-A:  0.000 fd=   0 aq=  176KB vq=    0KB sq=    0B f=0/0      1.44 M-A:  0.000 fd=   0 aq=  176KB vq=    0KB sq=    0B f=0/0      1.47 M-A:  0.000 fd=   0 aq=  176KB vq=    0KB sq=    0B f=0/0      1.50 M-A: -0.000 fd=   0 aq=  176KB vq=    0KB sq=    0B f=0/0      1.54 M-A:  0.000 fd=   0 aq=  176KB vq=    0KB sq=    0B f=0/0      1.57 M-A:  0.000 fd=   0 aq=  176KB vq=    0KB sq=    0B f=0/0      1.60 M-A:  0.000 fd=   0 aq=  176KB vq=    0KB sq=    0B f=0/0      1.64 M-A:  0.000 fd=   0 aq=  176KB vq=    0KB sq=    0B f=0/0      1.67 M-A: -0.000 fd=   0 aq=  176KB vq=    0KB sq=    0B f=0/0      1.68 M-A:  0.000 fd=   0 aq=  176KB vq=    0KB sq=    0B f=0/0      1.71 M-A:  0.000 fd=   0 aq=  176KB vq=    0KB sq=    0B f=0/0      1.74 M-A:  0.000 fd=   0 aq=  169KB vq=    0KB sq=    0B f=0/0      1.78 M-A:  0.000 fd=   0 aq=  161KB vq=    0KB sq=    0B f=0/0      1.81 M-A:  0.000 fd=   0 aq=  161KB vq=    0KB sq=    0B f=0/0      1.84 M-A:  0.000 fd=   0 aq=  153KB vq=    0KB sq=    0B f=0/0      1.87 M-A:  0.000 fd=   0 aq=  145KB vq=    0KB sq=    0B f=0/0      1.91 M-A:  0.000 fd=   0 aq=  137KB vq=    0KB sq=    0B f=0/0      1.94 M-A:  0.000 fd=   0 aq=  137KB vq=    0KB sq=    0B f=0/0      1.95 M-A:  0.000 fd=   0 aq=  129KB vq=    0KB sq=    0B f=0/0      1.98 M-A:  0.000 fd=   0 aq=  129KB vq=    0KB sq=    0B f=0/0      2.02 M-A:  0.000 fd=   0 aq=  121KB vq=    0KB sq=    0B f=0/0      2.05 M-A:  0.000 fd=   0 aq=  113KB vq=    0KB sq=    0B f=0/0      2.08 M-A:  0.000 fd=   0 aq=  113KB vq=    0KB sq=    0B f=0/0      2.11 M-A:  0.000 fd=   0 aq=  105KB vq=    0KB sq=    0B f=0/0      2.15 M-A:  0.000 fd=   0 aq=   97KB vq=    0KB sq=    0B f=0/0      2.18 M-A:  0.000 fd=   0 aq=   97KB vq=    0KB sq=    0B f=0/0      2.19 M-A:  0.000 fd=   0 aq=   89KB vq=    0KB sq=    0B f=0/0      2.22 M-A:  0.000 fd=   0 aq=   89KB vq=    0KB sq=    0B f=0/0      2.25 M-A:  0.000 fd=   0 aq=   81KB vq=    0KB sq=    0B f=0/0      2.29 M-A:  0.000 fd=   0 aq=   73KB vq=    0KB sq=    0B f=0/0      2.32 M-A:  0.000 fd=   0 aq=   65KB vq=    0KB sq=    0B f=0/0      2.35 M-A:  0.000 fd=   0 aq=   65KB vq=    0KB sq=    0B f=0/0      2.39 M-A:  0.000 fd=   0 aq=   57KB vq=    0KB sq=    0B f=0/0      2.42 M-A:  0.000 fd=   0 aq=   49KB vq=    0KB sq=    0B f=0/0      2.45 M-A:  0.000 fd=   0 aq=   49KB vq=    0KB sq=    0B f=0/0      2.46 M-A:  0.000 fd=   0 aq=   40KB vq=    0KB sq=    0B f=0/0      2.49 M-A:  0.000 fd=   0 aq=   40KB vq=    0KB sq=    0B f=0/0      2.53 M-A:  0.000 fd=   0 aq=   32KB vq=    0KB sq=    0B f=0/0      2.56 M-A:  0.000 fd=   0 aq=   24KB vq=    0KB sq=    0B f=0/0      2.59 M-A:  0.000 fd=   0 aq=   24KB vq=    0KB sq=    0B f=0/0      2.63 M-A:  0.000 fd=   0 aq=   16KB vq=    0KB sq=    0B f=0/0      2.66 M-A:  0.000 fd=   0 aq=    8KB vq=    0KB sq=    0B f=0/0      2.69 M-A:  0.000 fd=   0 aq=    8KB vq=    0KB sq=    0B f=0/0      2.72 M-A:  0.000 fd=   0 aq=    0KB vq=    0KB sq=    0B f=0/0      2.75 M-A:  0.000 fd=   0 aq=    0KB vq=    0KB sq=    0B f=0/0      2.77 M-A:  0.000 fd=   0 aq=    0KB vq=    0KB sq=    0B f=0/0      2.80 M-A:  0.000 fd=   0 aq=    0KB vq=    0KB sq=    0B f=0/0      2.83 M-A:  0.000 fd=   0 aq=    0KB vq=    0KB sq=    0B f=0/0      2.86 M-A:  0.000 fd=   0 aq=    0KB vq=    0KB sq=    0B f=0/0      2.90 M-A:  0.000 fd=   0 aq=    0KB vq=    0KB sq=    0B f=0/0      2.93 M-A:  0.000 fd=   0 aq=    0KB vq=    0KB sq=    0B f=0/0   
    nan    :  0.000 fd=   0 aq=    0KB vq=    0KB sq=    0B f=0/0   Input #0, wav, from '/tmp/tmpzo1mcxo8.wav':
  Duration: 00:00:03.00, bitrate: 1411 kb/s
  Stream #0:0: Audio: pcm_s16le ([1][0][0][0] / 0x0001), 44100 Hz, 2 channels, s16, 1411 kb/s
    nan M-A:    nan fd=   0 aq=  136KB vq=    0KB sq=    0B f=0/0     -0.03 M-A:  0.000 fd=   0 aq=  176KB vq=    0KB sq=    0B f=0/0      0.00 M-A:  0.000 fd=   0 aq=  168KB vq=    0KB sq=    0B f=0/0      0.03 M-A:  0.000 fd=   0 aq=  176KB vq=    0KB sq=    0B f=0/0      0.07 M-A:  0.000 fd=   0 aq=  176KB vq=    0KB sq=    0B f=0/0      0.10 M-A:  0.000 fd=   0 aq=  176KB vq=    0KB sq=    0B f=0/0      0.11 M-A:  0.000 fd=   0 aq=  176KB vq=    0KB sq=    0B f=0/0      0.14 M-A:  0.000 fd=   0 aq=  176KB vq=    0KB sq=    0B f=0/0      0.17 M-A:  0.000 fd=   0 aq=  176KB vq=    0KB sq=    0B f=0/0      0.21 M-A: -0.000 fd=   0 aq=  176KB vq=    0KB sq=    0B f=0/0      0.24 M-A: -0.000 fd=   0 aq=  176KB vq=    0KB sq=    0B f=0/0      0.27 M-A:  0.000 fd=   0 aq=  176KB vq=    0KB sq=    0B f=0/0      0.30 M-A:  0.000 fd=   0 aq=  176KB vq=    0KB sq=    0B f=0/0      0.34 M-A:  0.000 fd=   0 aq=  176KB vq=    0KB sq=    0B f=0/0      0.37 M-A:  0.000 fd=   0 aq=  176KB vq=    0KB sq=    0B f=0/0      0.38 M-A:  0.000 fd=   0 aq=  176KB vq=    0KB sq=    0B f=0/0      0.41 M-A:  0.000 fd=   0 aq=  176KB vq=    0KB sq=    0B f=0/0      0.45 M-A:  0.000 fd=   0 aq=  176KB vq=    0KB sq=    0B f=0/0      0.48 M-A:  0.000 fd=   0 aq=  176KB vq=    0KB sq=    0B f=0/0      0.51 M-A:  0.000 fd=   0 aq=  176KB vq=    0KB sq=    0B f=0/0      0.54 M-A:  0.000 fd=   0 aq=  176KB vq=    0KB sq=    0B f=0/0      0.58 M-A:  0.000 fd=   0 aq=  176KB vq=    0KB sq=    0B f=0/0      0.61 M-A: -0.000 fd=   0 aq=  176KB vq=    0KB sq=    0B f=0/0      0.62 M-A:  0.000 fd=   0 aq=  176KB vq=    0KB sq=    0B f=0/0      0.65 M-A:  0.000 fd=   0 aq=  176KB vq=    0KB sq=    0B f=0/0      0.69 M-A:  0.000 fd=   0 aq=  176KB vq=    0KB sq=    0B f=0/0      0.72 M-A:  0.000 fd=   0 aq=  176KB vq=    0KB sq=    0B f=0/0      0.75 M-A:  0.000 fd=   0 aq=  176KB vq=    0KB sq=    0B f=0/0      0.78 M-A:  0.000 fd=   0 aq=  176KB vq=    0KB sq=    0B f=0/0      0.82 M-A:  0.000 fd=   0 aq=  176KB vq=    0KB sq=    0B f=0/0      0.85 M-A:  0.000 fd=   0 aq=  176KB vq=    0KB sq=    0B f=0/0      0.88 M-A:  0.000 fd=   0 aq=  176KB vq=    0KB sq=    0B f=0/0      0.89 M-A:  0.000 fd=   0 aq=  176KB vq=    0KB sq=    0B f=0/0      0.92 M-A:  0.000 fd=   0 aq=  176KB vq=    0KB sq=    0B f=0/0      0.96 M-A:  0.000 fd=   0 aq=  176KB vq=    0KB sq=    0B f=0/0      0.99 M-A: -0.000 fd=   0 aq=  176KB vq=    0KB sq=    0B f=0/0      1.03 M-A:  0.000 fd=   0 aq=  176KB vq=    0KB sq=    0B f=0/0      1.06 M-A:  0.000 fd=   0 aq=  176KB vq=    0KB sq=    0B f=0/0      1.09 M-A:  0.000 fd=   0 aq=  176KB vq=    0KB sq=    0B f=0/0      1.12 M-A:  0.000 fd=   0 aq=  176KB vq=    0KB sq=    0B f=0/0      1.15 M-A:  0.000 fd=   0 aq=  176KB vq=    0KB sq=    0B f=0/0      1.17 M-A:  0.000 fd=   0 aq=  176KB vq=    0KB sq=    0B f=0/0      1.20 M-A:  0.000 fd=   0 aq=  176KB vq=    0KB sq=    0B f=0/0      1.23 M-A:  0.000 fd=   0 aq=  176KB vq=    0KB sq=    0B f=0/0      1.26 M-A:  0.000 fd=   0 aq=  176KB vq=    0KB sq=    0B f=0/0      1.30 M-A:  0.000 fd=   0 aq=  176KB vq=    0KB sq=    0B f=0/0      1.33 M-A:  0.000 fd=   0 aq=  176KB vq=    0KB sq=    0B f=0/0      1.36 M-A:  0.000 fd=   0 aq=  176KB vq=    0KB sq=    0B f=0/0      1.39 M-A:  0.000 fd=   0 aq=  176KB vq=    0KB sq=    0B f=0/0      1.41 M-A:  0.000 fd=   0 aq=  176KB vq=    0KB sq=    0B f=0/0      1.44 M-A:  0.000 fd=   0 aq=  168KB vq=    0KB sq=    0B f=0/0      1.47 M-A:  0.000 fd=   0 aq=  176KB vq=    0KB sq=    0B f=0/0      1.50 M-A:  0.000 fd=   0 aq=  176KB vq=    0KB sq=    0B f=0/0      1.54 M-A:  0.000 fd=   0 aq=  176KB vq=    0KB sq=    0B f=0/0      1.57 M-A:  0.000 fd=   0 aq=  176KB vq=    0KB sq=    0B f=0/0      1.60 M-A:  0.000 fd=   0 aq=  176KB vq=    0KB sq=    0B f=0/0      1.64 M-A:  0.000 fd=   0 aq=  176KB vq=    0KB sq=    0B f=0/0      1.67 M-A:  0.000 fd=   0 aq=  176KB vq=    0KB sq=    0B f=0/0      1.68 M-A:  0.000 fd=   0 aq=  176KB vq=    0KB sq=    0B f=0/0      1.71 M-A:  0.000 fd=   0 aq=  176KB vq=    0KB sq=    0B f=0/0      1.74 M-A:  0.000 fd=   0 aq=  169KB vq=    0KB sq=    0B f=0/0      1.78 M-A:  0.000 fd=   0 aq=  161KB vq=    0KB sq=    0B f=0/0      1.81 M-A:  0.000 fd=   0 aq=  161KB vq=    0KB sq=    0B f=0/0      1.84 M-A:  0.000 fd=   0 aq=  153KB vq=    0KB sq=    0B f=0/0      1.88 M-A:  0.000 fd=   0 aq=  145KB vq=    0KB sq=    0B f=0/0      1.91 M-A:  0.000 fd=   0 aq=  137KB vq=    0KB sq=    0B f=0/0      1.94 M-A:  0.000 fd=   0 aq=  137KB vq=    0KB sq=    0B f=0/0      1.95 M-A:  0.000 fd=   0 aq=  129KB vq=    0KB sq=    0B f=0/0      1.98 M-A:  0.000 fd=   0 aq=  129KB vq=    0KB sq=    0B f=0/0      2.02 M-A:  0.000 fd=   0 aq=  121KB vq=    0KB sq=    0B f=0/0      2.05 M-A:  0.000 fd=   0 aq=  113KB vq=    0KB sq=    0B f=0/0      2.08 M-A:  0.000 fd=   0 aq=  113KB vq=    0KB sq=    0B f=0/0      2.11 M-A:  0.000 fd=   0 aq=  105KB vq=    0KB sq=    0B f=0/0      2.15 M-A:  0.000 fd=   0 aq=   97KB vq=    0KB sq=    0B f=0/0      2.18 M-A:  0.000 fd=   0 aq=   97KB vq=    0KB sq=    0B f=0/0      2.19 M-A:  0.000 fd=   0 aq=   89KB vq=    0KB sq=    0B f=0/0      2.22 M-A:  0.000 fd=   0 aq=   89KB vq=    0KB sq=    0B f=0/0      2.26 M-A:  0.000 fd=   0 aq=   81KB vq=    0KB sq=    0B f=0/0      2.29 M-A:  0.000 fd=   0 aq=   73KB vq=    0KB sq=    0B f=0/0      2.32 M-A:  0.000 fd=   0 aq=   65KB vq=    0KB sq=    0B f=0/0      2.35 M-A:  0.000 fd=   0 aq=   65KB vq=    0KB sq=    0B f=0/0      2.39 M-A:  0.000 fd=   0 aq=   57KB vq=    0KB sq=    0B f=0/0      2.42 M-A:  0.000 fd=   0 aq=   49KB vq=    0KB sq=    0B f=0/0      2.45 M-A:  0.000 fd=   0 aq=   49KB vq=    0KB sq=    0B f=0/0      2.46 M-A:  0.000 fd=   0 aq=   40KB vq=    0KB sq=    0B f=0/0      2.49 M-A:  0.000 fd=   0 aq=   40KB vq=    0KB sq=    0B f=0/0      2.53 M-A:  0.000 fd=   0 aq=   32KB vq=    0KB sq=    0B f=0/0      2.56 M-A:  0.000 fd=   0 aq=   24KB vq=    0KB sq=    0B f=0/0      2.59 M-A:  0.000 fd=   0 aq=   24KB vq=    0KB sq=    0B f=0/0      2.63 M-A:  0.000 fd=   0 aq=   16KB vq=    0KB sq=    0B f=0/0      2.66 M-A:  0.000 fd=   0 aq=    8KB vq=    0KB sq=    0B f=0/0      2.69 M-A:  0.000 fd=   0 aq=    0KB vq=    0KB sq=    0B f=0/0      2.72 M-A:  0.000 fd=   0 aq=    0KB vq=    0KB sq=    0B f=0/0      2.75 M-A:  0.000 fd=   0 aq=    0KB vq=    0KB sq=    0B f=0/0      2.77 M-A:  0.000 fd=   0 aq=    0KB vq=    0KB sq=    0B f=0/0      2.80 M-A:  0.000 fd=   0 aq=    0KB vq=    0KB sq=    0B f=0/0      2.84 M-A:  0.000 fd=   0 aq=    0KB vq=    0KB sq=    0B f=0/0      2.87 M-A:  0.000 fd=   0 aq=    0KB vq=    0KB sq=    0B f=0/0      2.90 M-A:  0.000 fd=   0 aq=    0KB vq=    0KB sq=    0B f=0/0      2.93 M-A:  0.000 fd=   0 aq=    0KB vq=    0KB sq=    0B f=0/0   
    nan    :  0.000 fd=   0 aq=    0KB vq=    0KB sq=    0B f=0/0   Input #0, wav, from '/tmp/tmpqlr5kchj.wav':
  Duration: 00:00:03.00, bitrate: 1411 kb/s
  Stream #0:0: Audio: pcm_s16le ([1][0][0][0] / 0x0001), 44100 Hz, 2 channels, s16, 1411 kb/s
    nan M-A:    nan fd=   0 aq=  172KB vq=    0KB sq=    0B f=0/0     -0.03 M-A:  0.000 fd=   0 aq=  176KB vq=    0KB sq=    0B f=0/0      0.00 M-A:  0.000 fd=   0 aq=  176KB vq=    0KB sq=    0B f=0/0      0.03 M-A:  0.000 fd=   0 aq=  176KB vq=    0KB sq=    0B f=0/0      0.06 M-A:  0.000 fd=   0 aq=  176KB vq=    0KB sq=    0B f=0/0      0.09 M-A:  0.000 fd=   0 aq=  176KB vq=    0KB sq=    0B f=0/0      0.11 M-A:  0.000 fd=   0 aq=  176KB vq=    0KB sq=    0B f=0/0      0.14 M-A:  0.000 fd=   0 aq=  176KB vq=    0KB sq=    0B f=0/0      0.17 M-A:  0.000 fd=   0 aq=  176KB vq=    0KB sq=    0B f=0/0      0.21 M-A:  0.000 fd=   0 aq=  176KB vq=    0KB sq=    0B f=0/0      0.24 M-A:  0.000 fd=   0 aq=  176KB vq=    0KB sq=    0B f=0/0      0.27 M-A:  0.000 fd=   0 aq=  176KB vq=    0KB sq=    0B f=0/0      0.30 M-A:  0.000 fd=   0 aq=  176KB vq=    0KB sq=    0B f=0/0      0.34 M-A:  0.000 fd=   0 aq=  176KB vq=    0KB sq=    0B f=0/0      0.37 M-A:  0.000 fd=   0 aq=  176KB vq=    0KB sq=    0B f=0/0      0.38 M-A:  0.000 fd=   0 aq=  176KB vq=    0KB sq=    0B f=0/0      0.41 M-A:  0.000 fd=   0 aq=  176KB vq=    0KB sq=    0B f=0/0      0.44 M-A:  0.000 fd=   0 aq=  176KB vq=    0KB sq=    0B f=0/0      0.48 M-A:  0.000 fd=   0 aq=  176KB vq=    0KB sq=    0B f=0/0      0.51 M-A: -0.000 fd=   0 aq=  176KB vq=    0KB sq=    0B f=0/0      0.54 M-A:  0.000 fd=   0 aq=  176KB vq=    0KB sq=    0B f=0/0      0.58 M-A:  0.000 fd=   0 aq=  176KB vq=    0KB sq=    0B f=0/0      0.61 M-A:  0.000 fd=   0 aq=  176KB vq=    0KB sq=    0B f=0/0      0.62 M-A:  0.000 fd=   0 aq=  176KB vq=    0KB sq=    0B f=0/0      0.65 M-A:  0.000 fd=   0 aq=  176KB vq=    0KB sq=    0B f=0/0      0.68 M-A:  0.000 fd=   0 aq=  176KB vq=    0KB sq=    0B f=0/0      0.72 M-A:  0.000 fd=   0 aq=  176KB vq=    0KB sq=    0B f=0/0      0.75 M-A:  0.000 fd=   0 aq=  176KB vq=    0KB sq=    0B f=0/0      0.78 M-A:  0.000 fd=   0 aq=  176KB vq=    0KB sq=    0B f=0/0      0.82 M-A:  0.000 fd=   0 aq=  176KB vq=    0KB sq=    0B f=0/0      0.85 M-A:  0.000 fd=   0 aq=  176KB vq=    0KB sq=    0B f=0/0      0.88 M-A:  0.000 fd=   0 aq=  176KB vq=    0KB sq=    0B f=0/0      0.89 M-A:  0.000 fd=   0 aq=  176KB vq=    0KB sq=    0B f=0/0      0.92 M-A:  0.000 fd=   0 aq=  176KB vq=    0KB sq=    0B f=0/0      0.96 M-A:  0.000 fd=   0 aq=  176KB vq=    0KB sq=    0B f=0/0      0.99 M-A:  0.000 fd=   0 aq=  176KB vq=    0KB sq=    0B f=0/0      1.02 M-A:  0.000 fd=   0 aq=  176KB vq=    0KB sq=    0B f=0/0      1.05 M-A:  0.000 fd=   0 aq=  176KB vq=    0KB sq=    0B f=0/0      1.09 M-A:  0.000 fd=   0 aq=  176KB vq=    0KB sq=    0B f=0/0      1.12 M-A:  0.000 fd=   0 aq=  176KB vq=    0KB sq=    0B f=0/0      1.15 M-A:  0.000 fd=   0 aq=  176KB vq=    0KB sq=    0B f=0/0      1.17 M-A:  0.000 fd=   0 aq=  176KB vq=    0KB sq=    0B f=0/0      1.20 M-A:  0.000 fd=   0 aq=  176KB vq=    0KB sq=    0B f=0/0      1.23 M-A:  0.000 fd=   0 aq=  176KB vq=    0KB sq=    0B f=0/0      1.26 M-A:  0.000 fd=   0 aq=  176KB vq=    0KB sq=    0B f=0/0      1.29 M-A:  0.000 fd=   0 aq=  176KB vq=    0KB sq=    0B f=0/0      1.33 M-A:  0.000 fd=   0 aq=  176KB vq=    0KB sq=    0B f=0/0      1.36 M-A:  0.000 fd=   0 aq=  176KB vq=    0KB sq=    0B f=0/0      1.39 M-A:  0.000 fd=   0 aq=  176KB vq=    0KB sq=    0B f=0/0      1.40 M-A:  0.000 fd=   0 aq=  176KB vq=    0KB sq=    0B f=0/0      1.44 M-A:  0.000 fd=   0 aq=  176KB vq=    0KB sq=    0B f=0/0      1.47 M-A: -0.000 fd=   0 aq=  176KB vq=    0KB sq=    0B f=0/0      1.50 M-A:  0.000 fd=   0 aq=  176KB vq=    0KB sq=    0B f=0/0      1.54 M-A:  0.000 fd=   0 aq=  176KB vq=    0KB sq=    0B f=0/0      1.57 M-A:  0.000 fd=   0 aq=  176KB vq=    0KB sq=    0B f=0/0      1.60 M-A:  0.000 fd=   0 aq=  176KB vq=    0KB sq=    0B f=0/0      1.64 M-A:  0.000 fd=   0 aq=  176KB vq=    0KB sq=    0B f=0/0      1.67 M-A:  0.000 fd=   0 aq=  176KB vq=    0KB sq=    0B f=0/0      1.68 M-A:  0.000 fd=   0 aq=  176KB vq=    0KB sq=    0B f=0/0      1.71 M-A:  0.000 fd=   0 aq=  176KB vq=    0KB sq=    0B f=0/0      1.74 M-A:  0.000 fd=   0 aq=  169KB vq=    0KB sq=    0B f=0/0      1.78 M-A:  0.000 fd=   0 aq=  161KB vq=    0KB sq=    0B f=0/0      1.81 M-A:  0.000 fd=   0 aq=  161KB vq=    0KB sq=    0B f=0/0      1.84 M-A:  0.000 fd=   0 aq=  153KB vq=    0KB sq=    0B f=0/0      1.87 M-A:  0.000 fd=   0 aq=  145KB vq=    0KB sq=    0B f=0/0      1.91 M-A:  0.000 fd=   0 aq=  137KB vq=    0KB sq=    0B f=0/0      1.94 M-A: -0.000 fd=   0 aq=  137KB vq=    0KB sq=    0B f=0/0      1.95 M-A: -0.000 fd=   0 aq=  129KB vq=    0KB sq=    0B f=0/0      1.98 M-A:  0.000 fd=   0 aq=  129KB vq=    0KB sq=    0B f=0/0      2.02 M-A:  0.000 fd=   0 aq=  121KB vq=    0KB sq=    0B f=0/0      2.05 M-A:  0.000 fd=   0 aq=  113KB vq=    0KB sq=    0B f=0/0      2.08 M-A:  0.000 fd=   0 aq=  113KB vq=    0KB sq=    0B f=0/0      2.11 M-A:  0.000 fd=   0 aq=  105KB vq=    0KB sq=    0B f=0/0      2.15 M-A:  0.000 fd=   0 aq=   97KB vq=    0KB sq=    0B f=0/0      2.18 M-A:  0.000 fd=   0 aq=   97KB vq=    0KB sq=    0B f=0/0      2.19 M-A:  0.000 fd=   0 aq=   89KB vq=    0KB sq=    0B f=0/0      2.22 M-A:  0.000 fd=   0 aq=   89KB vq=    0KB sq=    0B f=0/0      2.25 M-A:  0.000 fd=   0 aq=   81KB vq=    0KB sq=    0B f=0/0      2.29 M-A:  0.000 fd=   0 aq=   73KB vq=    0KB sq=    0B f=0/0      2.32 M-A:  0.000 fd=   0 aq=   65KB vq=    0KB sq=    0B f=0/0      2.35 M-A:  0.000 fd=   0 aq=   65KB vq=    0KB sq=    0B f=0/0      2.39 M-A:  0.000 fd=   0 aq=   57KB vq=    0KB sq=    0B f=0/0      2.42 M-A:  0.000 fd=   0 aq=   49KB vq=    0KB sq=    0B f=0/0      2.45 M-A:  0.000 fd=   0 aq=   49KB vq=    0KB sq=    0B f=0/0      2.46 M-A:  0.000 fd=   0 aq=   40KB vq=    0KB sq=    0B f=0/0      2.49 M-A:  0.000 fd=   0 aq=   40KB vq=    0KB sq=    0B f=0/0      2.53 M-A:  0.000 fd=   0 aq=   32KB vq=    0KB sq=    0B f=0/0      2.56 M-A:  0.000 fd=   0 aq=   24KB vq=    0KB sq=    0B f=0/0      2.59 M-A:  0.000 fd=   0 aq=   24KB vq=    0KB sq=    0B f=0/0      2.63 M-A:  0.000 fd=   0 aq=   16KB vq=    0KB sq=    0B f=0/0      2.66 M-A:  0.000 fd=   0 aq=    8KB vq=    0KB sq=    0B f=0/0      2.69 M-A:  0.000 fd=   0 aq=    0KB vq=    0KB sq=    0B f=0/0      2.72 M-A:  0.000 fd=   0 aq=    0KB vq=    0KB sq=    0B f=0/0      2.75 M-A:  0.000 fd=   0 aq=    0KB vq=    0KB sq=    0B f=0/0      2.77 M-A:  0.000 fd=   0 aq=    0KB vq=    0KB sq=    0B f=0/0      2.80 M-A:  0.000 fd=   0 aq=    0KB vq=    0KB sq=    0B f=0/0      2.83 M-A:  0.000 fd=   0 aq=    0KB vq=    0KB sq=    0B f=0/0      2.87 M-A:  0.000 fd=   0 aq=    0KB vq=    0KB sq=    0B f=0/0      2.90 M-A:  0.000 fd=   0 aq=    0KB vq=    0KB sq=    0B f=0/0      2.93 M-A:  0.000 fd=   0 aq=    0KB vq=    0KB sq=    0B f=0/0   
    nan    :  0.000 fd=   0 aq=    0KB vq=    0KB sq=    0B f=0/0   Input #0, wav, from '/tmp/tmpli87egfi.wav':
  Duration: 00:00:03.00, bitrate: 1411 kb/s
  Stream #0:0: Audio: pcm_s16le ([1][0][0][0] / 0x0001), 44100 Hz, 2 channels, s16, 1411 kb/s
    nan M-A:    nan fd=   0 aq=  136KB vq=    0KB sq=    0B f=0/0     -0.03 M-A:  0.000 fd=   0 aq=  176KB vq=    0KB sq=    0B f=0/0      0.00 M-A:  0.000 fd=   0 aq=  168KB vq=    0KB sq=    0B f=0/0      0.03 M-A:  0.000 fd=   0 aq=  176KB vq=    0KB sq=    0B f=0/0      0.07 M-A:  0.000 fd=   0 aq=  176KB vq=    0KB sq=    0B f=0/0      0.10 M-A:  0.000 fd=   0 aq=  176KB vq=    0KB sq=    0B f=0/0      0.11 M-A:  0.000 fd=   0 aq=  176KB vq=    0KB sq=    0B f=0/0      0.14 M-A:  0.000 fd=   0 aq=  176KB vq=    0KB sq=    0B f=0/0      0.17 M-A:  0.000 fd=   0 aq=  176KB vq=    0KB sq=    0B f=0/0      0.21 M-A:  0.000 fd=   0 aq=  176KB vq=    0KB sq=    0B f=0/0      0.24 M-A:  0.000 fd=   0 aq=  176KB vq=    0KB sq=    0B f=0/0      0.27 M-A:  0.000 fd=   0 aq=  176KB vq=    0KB sq=    0B f=0/0      0.30 M-A:  0.000 fd=   0 aq=  176KB vq=    0KB sq=    0B f=0/0      0.34 M-A:  0.000 fd=   0 aq=  176KB vq=    0KB sq=    0B f=0/0      0.37 M-A:  0.000 fd=   0 aq=  176KB vq=    0KB sq=    0B f=0/0      0.38 M-A:  0.000 fd=   0 aq=  176KB vq=    0KB sq=    0B f=0/0      0.41 M-A:  0.000 fd=   0 aq=  176KB vq=    0KB sq=    0B f=0/0      0.45 M-A:  0.000 fd=   0 aq=  176KB vq=    0KB sq=    0B f=0/0      0.48 M-A:  0.000 fd=   0 aq=  176KB vq=    0KB sq=    0B f=0/0      0.51 M-A:  0.000 fd=   0 aq=  176KB vq=    0KB sq=    0B f=0/0      0.54 M-A:  0.000 fd=   0 aq=  176KB vq=    0KB sq=    0B f=0/0      0.58 M-A:  0.000 fd=   0 aq=  176KB vq=    0KB sq=    0B f=0/0      0.61 M-A:  0.000 fd=   0 aq=  176KB vq=    0KB sq=    0B f=0/0      0.62 M-A:  0.000 fd=   0 aq=  176KB vq=    0KB sq=    0B f=0/0      0.65 M-A:  0.000 fd=   0 aq=  176KB vq=    0KB sq=    0B f=0/0      0.68 M-A:  0.000 fd=   0 aq=  176KB vq=    0KB sq=    0B f=0/0      0.72 M-A:  0.000 fd=   0 aq=  176KB vq=    0KB sq=    0B f=0/0      0.75 M-A:  0.000 fd=   0 aq=  176KB vq=    0KB sq=    0B f=0/0      0.78 M-A:  0.000 fd=   0 aq=  176KB vq=    0KB sq=    0B f=0/0      0.82 M-A:  0.000 fd=   0 aq=  176KB vq=    0KB sq=    0B f=0/0      0.85 M-A:  0.000 fd=   0 aq=  176KB vq=    0KB sq=    0B f=0/0      0.88 M-A:  0.000 fd=   0 aq=  176KB vq=    0KB sq=    0B f=0/0      0.89 M-A:  0.000 fd=   0 aq=  176KB vq=    0KB sq=    0B f=0/0      0.92 M-A:  0.000 fd=   0 aq=  176KB vq=    0KB sq=    0B f=0/0      0.96 M-A:  0.000 fd=   0 aq=  176KB vq=    0KB sq=    0B f=0/0      0.99 M-A:  0.000 fd=   0 aq=  176KB vq=    0KB sq=    0B f=0/0      1.03 M-A:  0.000 fd=   0 aq=  176KB vq=    0KB sq=    0B f=0/0      1.06 M-A:  0.000 fd=   0 aq=  176KB vq=    0KB sq=    0B f=0/0      1.09 M-A: -0.000 fd=   0 aq=  176KB vq=    0KB sq=    0B f=0/0      1.12 M-A: -0.000 fd=   0 aq=  176KB vq=    0KB sq=    0B f=0/0      1.15 M-A:  0.000 fd=   0 aq=  176KB vq=    0KB sq=    0B f=0/0      1.17 M-A: -0.000 fd=   0 aq=  176KB vq=    0KB sq=    0B f=0/0      1.20 M-A: -0.000 fd=   0 aq=  176KB vq=    0KB sq=    0B f=0/0      1.23 M-A:  0.000 fd=   0 aq=  176KB vq=    0KB sq=    0B f=0/0      1.27 M-A:  0.000 fd=   0 aq=  176KB vq=    0KB sq=    0B f=0/0      1.30 M-A:  0.000 fd=   0 aq=  176KB vq=    0KB sq=    0B f=0/0      1.33 M-A:  0.000 fd=   0 aq=  176KB vq=    0KB sq=    0B f=0/0      1.36 M-A:  0.000 fd=   0 aq=  176KB vq=    0KB sq=    0B f=0/0      1.39 M-A:  0.000 fd=   0 aq=  176KB vq=    0KB sq=    0B f=0/0      1.41 M-A:  0.000 fd=   0 aq=  176KB vq=    0KB sq=    0B f=0/0      1.44 M-A:  0.000 fd=   0 aq=  168KB vq=    0KB sq=    0B f=0/0      1.47 M-A:  0.000 fd=   0 aq=  176KB vq=    0KB sq=    0B f=0/0      1.50 M-A:  0.000 fd=   0 aq=  176KB vq=    0KB sq=    0B f=0/0      1.54 M-A:  0.000 fd=   0 aq=  176KB vq=    0KB sq=    0B f=0/0      1.57 M-A:  0.000 fd=   0 aq=  176KB vq=    0KB sq=    0B f=0/0      1.60 M-A:  0.000 fd=   0 aq=  176KB vq=    0KB sq=    0B f=0/0      1.64 M-A:  0.000 fd=   0 aq=  176KB vq=    0KB sq=    0B f=0/0      1.67 M-A:  0.000 fd=   0 aq=  176KB vq=    0KB sq=    0B f=0/0      1.68 M-A:  0.000 fd=   0 aq=  176KB vq=    0KB sq=    0B f=0/0      1.71 M-A:  0.000 fd=   0 aq=  176KB vq=    0KB sq=    0B f=0/0      1.74 M-A:  0.000 fd=   0 aq=  169KB vq=    0KB sq=    0B f=0/0      1.78 M-A:  0.000 fd=   0 aq=  161KB vq=    0KB sq=    0B f=0/0      1.81 M-A:  0.000 fd=   0 aq=  153KB vq=    0KB sq=    0B f=0/0      1.84 M-A:  0.000 fd=   0 aq=  153KB vq=    0KB sq=    0B f=0/0      1.88 M-A:  0.000 fd=   0 aq=  145KB vq=    0KB sq=    0B f=0/0      1.91 M-A:  0.000 fd=   0 aq=  137KB vq=    0KB sq=    0B f=0/0      1.94 M-A:  0.000 fd=   0 aq=  137KB vq=    0KB sq=    0B f=0/0      1.95 M-A:  0.000 fd=   0 aq=  129KB vq=    0KB sq=    0B f=0/0      1.98 M-A:  0.000 fd=   0 aq=  129KB vq=    0KB sq=    0B f=0/0      2.02 M-A:  0.000 fd=   0 aq=  121KB vq=    0KB sq=    0B f=0/0      2.05 M-A:  0.000 fd=   0 aq=  113KB vq=    0KB sq=    0B f=0/0      2.08 M-A:  0.000 fd=   0 aq=  113KB vq=    0KB sq=    0B f=0/0      2.11 M-A:  0.000 fd=   0 aq=  105KB vq=    0KB sq=    0B f=0/0      2.15 M-A:  0.000 fd=   0 aq=   97KB vq=    0KB sq=    0B f=0/0      2.18 M-A:  0.000 fd=   0 aq=   97KB vq=    0KB sq=    0B f=0/0      2.19 M-A:  0.000 fd=   0 aq=   89KB vq=    0KB sq=    0B f=0/0      2.22 M-A:  0.000 fd=   0 aq=   89KB vq=    0KB sq=    0B f=0/0      2.26 M-A:  0.000 fd=   0 aq=   81KB vq=    0KB sq=    0B f=0/0      2.29 M-A:  0.000 fd=   0 aq=   73KB vq=    0KB sq=    0B f=0/0      2.32 M-A:  0.000 fd=   0 aq=   65KB vq=    0KB sq=    0B f=0/0      2.35 M-A:  0.000 fd=   0 aq=   65KB vq=    0KB sq=    0B f=0/0      2.39 M-A:  0.000 fd=   0 aq=   57KB vq=    0KB sq=    0B f=0/0      2.42 M-A:  0.000 fd=   0 aq=   49KB vq=    0KB sq=    0B f=0/0      2.45 M-A:  0.000 fd=   0 aq=   49KB vq=    0KB sq=    0B f=0/0      2.47 M-A:  0.000 fd=   0 aq=   40KB vq=    0KB sq=    0B f=0/0      2.50 M-A: -0.000 fd=   0 aq=   40KB vq=    0KB sq=    0B f=0/0      2.53 M-A:  0.000 fd=   0 aq=   32KB vq=    0KB sq=    0B f=0/0      2.56 M-A:  0.000 fd=   0 aq=   24KB vq=    0KB sq=    0B f=0/0      2.59 M-A:  0.000 fd=   0 aq=   24KB vq=    0KB sq=    0B f=0/0      2.63 M-A:  0.000 fd=   0 aq=   16KB vq=    0KB sq=    0B f=0/0      2.66 M-A:  0.000 fd=   0 aq=    8KB vq=    0KB sq=    0B f=0/0      2.70 M-A: -0.000 fd=   0 aq=    0KB vq=    0KB sq=    0B f=0/0      2.73 M-A: -0.000 fd=   0 aq=    0KB vq=    0KB sq=    0B f=0/0      2.76 M-A:  0.000 fd=   0 aq=    0KB vq=    0KB sq=    0B f=0/0      2.77 M-A:  0.000 fd=   0 aq=    0KB vq=    0KB sq=    0B f=0/0      2.80 M-A:  0.000 fd=   0 aq=    0KB vq=    0KB sq=    0B f=0/0      2.84 M-A: -0.000 fd=   0 aq=    0KB vq=    0KB sq=    0B f=0/0      2.87 M-A: -0.000 fd=   0 aq=    0KB vq=    0KB sq=    0B f=0/0      2.90 M-A:  0.000 fd=   0 aq=    0KB vq=    0KB sq=    0B f=0/0      2.93 M-A:  0.000 fd=   0 aq=    0KB vq=    0KB sq=    0B f=0/0   
Next Notification in : 5
Next Notification in : 7
Next Notification in : 7
Next Notification in : 9
Next Notification in : 8
Traceback (most recent call last):
  File "/usr/lib/python3.12/asyncio/runners.py", line 118, in run
    return self._loop.run_until_complete(task)
           ^^^^^^^^^^^^^^^^^^^^^^^^^^^^^^^^^^^
  File "/usr/lib/python3.12/asyncio/base_events.py", line 687, in run_until_complete
    return future.result()
           ^^^^^^^^^^^^^^^
  File "/home/varizz/Desktop/Death_Notifier-/notify.py", line 40, in main
    await asyncio.sleep(wait_seconds)
  File "/usr/lib/python3.12/asyncio/tasks.py", line 665, in sleep
    return await future
           ^^^^^^^^^^^^
asyncio.exceptions.CancelledError

During handling of the above exception, another exception occurred:

Traceback (most recent call last):
  File "/home/varizz/Desktop/Death_Notifier-/notify.py", line 45, in <module>
    asyncio.run(main())
  File "/usr/lib/python3.12/asyncio/runners.py", line 194, in run
    return runner.run(main)
           ^^^^^^^^^^^^^^^^
  File "/usr/lib/python3.12/asyncio/runners.py", line 123, in run
    raise KeyboardInterrupt()
KeyboardInterrupt
